# xmcd
#
# Track frame offsets: 
#        150
#        14165
#        31338
#        44129
#        58476
#        72387
#        91708
#        109744
#        125549
#        145151
#        161504
#
# Disc length: 2351 seconds
#
# Revision: 0
# Processed by: cddbd v1.5.2PL0 Copyright (c) Steve Scherf et al.
# Submitted via: ExactAudioCopy v0.99pb5
#
DISCID=a2092d0b
DTITLE=Jarabe de Palo - 50 Palos (IT)
DYEAR=2017
DGENRE=Blues
TTITLE0=Fumo
TTITLE1=Grita
TTITLE2=Tiempo
TTITLE3=Dipende
TTITLE4=Estamos Prohibidos
TTITLE5=Agua
TTITLE6=Dos Días En La Vida
TTITLE7=Mama
TTITLE8=La Flaca
TTITLE9=No Te Duermas
TTITLE10=Tu Me Hacías Sonreir
EXTD=
EXTT0=
EXTT1=
EXTT2=
EXTT3=
EXTT4=
EXTT5=
EXTT6=
EXTT7=
EXTT8=
EXTT9=
EXTT10=
PLAYORDER=
